<mxfile host="Electron" agent="Mozilla/5.0 (Windows NT 10.0; Win64; x64) AppleWebKit/537.36 (KHTML, like Gecko) draw.io/24.7.17 Chrome/128.0.6613.36 Electron/32.0.1 Safari/537.36" version="24.7.17">
  <diagram name="Page-1" id="wViVaf9zIqDL5i371vyY">
    <mxGraphModel dx="720" dy="423" grid="1" gridSize="10" guides="1" tooltips="1" connect="1" arrows="1" fold="1" page="1" pageScale="1" pageWidth="850" pageHeight="1100" math="0" shadow="0">
      <root>
        <mxCell id="0" />
        <mxCell id="1" parent="0" />
        <mxCell id="iDYm_iqX0b8phWRdHv6u-1" value="user" style="shape=umlActor;verticalLabelPosition=bottom;verticalAlign=top;html=1;outlineConnect=0;" parent="1" vertex="1">
          <mxGeometry x="70" y="250" width="30" height="60" as="geometry" />
        </mxCell>
        <mxCell id="iDYm_iqX0b8phWRdHv6u-2" value="librarian" style="shape=umlActor;verticalLabelPosition=bottom;verticalAlign=top;html=1;outlineConnect=0;" parent="1" vertex="1">
          <mxGeometry x="750" y="250" width="30" height="60" as="geometry" />
        </mxCell>
        <mxCell id="iDYm_iqX0b8phWRdHv6u-13" value="" style="endArrow=classic;html=1;rounded=0;entryX=0;entryY=0.5;entryDx=0;entryDy=0;exitX=1;exitY=0.3333333333333333;exitDx=0;exitDy=0;exitPerimeter=0;" parent="1" source="iDYm_iqX0b8phWRdHv6u-1" target="iDYm_iqX0b8phWRdHv6u-7" edge="1">
          <mxGeometry width="50" height="50" relative="1" as="geometry">
            <mxPoint x="190" y="290" as="sourcePoint" />
            <mxPoint x="240" y="240" as="targetPoint" />
          </mxGeometry>
        </mxCell>
        <mxCell id="iDYm_iqX0b8phWRdHv6u-15" value="" style="endArrow=classic;html=1;rounded=0;entryX=0;entryY=0.5;entryDx=0;entryDy=0;exitX=0.433;exitY=0.7;exitDx=0;exitDy=0;exitPerimeter=0;" parent="1" source="iDYm_iqX0b8phWRdHv6u-1" target="iDYm_iqX0b8phWRdHv6u-4" edge="1">
          <mxGeometry width="50" height="50" relative="1" as="geometry">
            <mxPoint x="190" y="350" as="sourcePoint" />
            <mxPoint x="240" y="300" as="targetPoint" />
          </mxGeometry>
        </mxCell>
        <mxCell id="iDYm_iqX0b8phWRdHv6u-16" value="" style="endArrow=classic;html=1;rounded=0;exitX=1;exitY=1;exitDx=0;exitDy=0;exitPerimeter=0;" parent="1" source="iDYm_iqX0b8phWRdHv6u-1" target="iDYm_iqX0b8phWRdHv6u-6" edge="1">
          <mxGeometry width="50" height="50" relative="1" as="geometry">
            <mxPoint x="120" y="440" as="sourcePoint" />
            <mxPoint x="170" y="390" as="targetPoint" />
          </mxGeometry>
        </mxCell>
        <mxCell id="iDYm_iqX0b8phWRdHv6u-17" value="" style="endArrow=classic;html=1;rounded=0;entryX=0.967;entryY=0.283;entryDx=0;entryDy=0;entryPerimeter=0;exitX=0.233;exitY=0.9;exitDx=0;exitDy=0;exitPerimeter=0;" parent="1" source="iDYm_iqX0b8phWRdHv6u-2" target="iDYm_iqX0b8phWRdHv6u-8" edge="1">
          <mxGeometry width="50" height="50" relative="1" as="geometry">
            <mxPoint x="610" y="420" as="sourcePoint" />
            <mxPoint x="660" y="370" as="targetPoint" />
          </mxGeometry>
        </mxCell>
        <mxCell id="z4ZoegPpAOE9IkddxPYr-1" value="Library system&amp;nbsp;" style="swimlane;whiteSpace=wrap;html=1;" vertex="1" parent="1">
          <mxGeometry x="320" y="99" width="200" height="480" as="geometry" />
        </mxCell>
        <mxCell id="iDYm_iqX0b8phWRdHv6u-4" value="Borrow material" style="ellipse;whiteSpace=wrap;html=1;" parent="z4ZoegPpAOE9IkddxPYr-1" vertex="1">
          <mxGeometry x="40" y="201" width="120" height="50" as="geometry" />
        </mxCell>
        <mxCell id="iDYm_iqX0b8phWRdHv6u-6" value="Return material" style="ellipse;whiteSpace=wrap;html=1;" parent="z4ZoegPpAOE9IkddxPYr-1" vertex="1">
          <mxGeometry x="40" y="281" width="120" height="40" as="geometry" />
        </mxCell>
        <mxCell id="iDYm_iqX0b8phWRdHv6u-7" value="search material" style="ellipse;whiteSpace=wrap;html=1;" parent="z4ZoegPpAOE9IkddxPYr-1" vertex="1">
          <mxGeometry x="40" y="141" width="120" height="50" as="geometry" />
        </mxCell>
        <mxCell id="z4ZoegPpAOE9IkddxPYr-2" value="Register" style="ellipse;whiteSpace=wrap;html=1;" vertex="1" parent="z4ZoegPpAOE9IkddxPYr-1">
          <mxGeometry x="40" y="91" width="120" height="41" as="geometry" />
        </mxCell>
        <mxCell id="z4ZoegPpAOE9IkddxPYr-3" value="Login" style="ellipse;whiteSpace=wrap;html=1;" vertex="1" parent="z4ZoegPpAOE9IkddxPYr-1">
          <mxGeometry x="40" y="41" width="120" height="39" as="geometry" />
        </mxCell>
        <mxCell id="z4ZoegPpAOE9IkddxPYr-7" value="View borrowed items" style="ellipse;whiteSpace=wrap;html=1;" vertex="1" parent="z4ZoegPpAOE9IkddxPYr-1">
          <mxGeometry x="40" y="350" width="120" height="40" as="geometry" />
        </mxCell>
        <mxCell id="iDYm_iqX0b8phWRdHv6u-8" value="manage material" style="ellipse;whiteSpace=wrap;html=1;" parent="z4ZoegPpAOE9IkddxPYr-1" vertex="1">
          <mxGeometry x="40" y="401" width="120" height="50" as="geometry" />
        </mxCell>
        <mxCell id="z4ZoegPpAOE9IkddxPYr-4" value="" style="endArrow=classic;html=1;rounded=0;entryX=0;entryY=0.5;entryDx=0;entryDy=0;exitX=0.75;exitY=0.1;exitDx=0;exitDy=0;exitPerimeter=0;" edge="1" parent="1" source="iDYm_iqX0b8phWRdHv6u-1" target="z4ZoegPpAOE9IkddxPYr-3">
          <mxGeometry width="50" height="50" relative="1" as="geometry">
            <mxPoint x="180" y="230" as="sourcePoint" />
            <mxPoint x="230" y="180" as="targetPoint" />
          </mxGeometry>
        </mxCell>
        <mxCell id="z4ZoegPpAOE9IkddxPYr-5" value="" style="endArrow=classic;html=1;rounded=0;entryX=0;entryY=0.5;entryDx=0;entryDy=0;exitX=0.5;exitY=0.5;exitDx=0;exitDy=0;exitPerimeter=0;" edge="1" parent="1" source="iDYm_iqX0b8phWRdHv6u-1" target="z4ZoegPpAOE9IkddxPYr-2">
          <mxGeometry width="50" height="50" relative="1" as="geometry">
            <mxPoint x="220" y="270" as="sourcePoint" />
            <mxPoint x="270" y="220" as="targetPoint" />
          </mxGeometry>
        </mxCell>
        <mxCell id="z4ZoegPpAOE9IkddxPYr-8" value="" style="endArrow=classic;html=1;rounded=0;entryX=0;entryY=0.5;entryDx=0;entryDy=0;exitX=0.5;exitY=0.5;exitDx=0;exitDy=0;exitPerimeter=0;" edge="1" parent="1" source="iDYm_iqX0b8phWRdHv6u-1" target="z4ZoegPpAOE9IkddxPYr-7">
          <mxGeometry width="50" height="50" relative="1" as="geometry">
            <mxPoint x="110" y="410" as="sourcePoint" />
            <mxPoint x="160" y="360" as="targetPoint" />
          </mxGeometry>
        </mxCell>
      </root>
    </mxGraphModel>
  </diagram>
</mxfile>
